<mxfile host="app.diagrams.net" modified="2021-07-11T10:07:28.226Z" agent="5.0 (Windows NT 10.0; Win64; x64) AppleWebKit/537.36 (KHTML, like Gecko) Chrome/91.0.4472.124 Safari/537.36 Edg/91.0.864.67" etag="K1-_eEyGL7QmN7u1YXuu" version="14.8.5" type="github" pages="2">
  <diagram id="C5RBs43oDa-KdzZeNtuy" name="Page-1">
    <mxGraphModel dx="1038" dy="579" grid="0" gridSize="10" guides="1" tooltips="1" connect="1" arrows="1" fold="1" page="1" pageScale="1" pageWidth="827" pageHeight="1169" math="0" shadow="0">
      <root>
        <mxCell id="WIyWlLk6GJQsqaUBKTNV-0" />
        <mxCell id="WIyWlLk6GJQsqaUBKTNV-1" parent="WIyWlLk6GJQsqaUBKTNV-0" />
        <mxCell id="ZNMSevWMWKB2k7Ek5_Fw-40" style="edgeStyle=orthogonalEdgeStyle;rounded=0;jumpSize=4;orthogonalLoop=1;jettySize=auto;html=1;exitX=0.5;exitY=0.5;exitDx=0;exitDy=10;exitPerimeter=0;entryX=0.5;entryY=0;entryDx=0;entryDy=0;" parent="WIyWlLk6GJQsqaUBKTNV-1" source="ZNMSevWMWKB2k7Ek5_Fw-0" target="ZNMSevWMWKB2k7Ek5_Fw-1" edge="1">
          <mxGeometry relative="1" as="geometry" />
        </mxCell>
        <mxCell id="ZNMSevWMWKB2k7Ek5_Fw-0" value="开始" style="html=1;dashed=0;whitespace=wrap;shape=mxgraph.dfd.start" parent="WIyWlLk6GJQsqaUBKTNV-1" vertex="1">
          <mxGeometry x="360" y="60" width="80" height="20" as="geometry" />
        </mxCell>
        <mxCell id="ZNMSevWMWKB2k7Ek5_Fw-5" style="edgeStyle=orthogonalEdgeStyle;rounded=0;orthogonalLoop=1;jettySize=auto;html=1;exitX=0.5;exitY=1;exitDx=0;exitDy=0;entryX=0.5;entryY=0;entryDx=0;entryDy=0;" parent="WIyWlLk6GJQsqaUBKTNV-1" source="ZNMSevWMWKB2k7Ek5_Fw-1" target="ZNMSevWMWKB2k7Ek5_Fw-4" edge="1">
          <mxGeometry relative="1" as="geometry" />
        </mxCell>
        <mxCell id="ZNMSevWMWKB2k7Ek5_Fw-1" value="输入函数参数" style="shape=parallelogram;perimeter=parallelogramPerimeter;whiteSpace=wrap;html=1;fixedSize=1;" parent="WIyWlLk6GJQsqaUBKTNV-1" vertex="1">
          <mxGeometry x="340" y="100" width="120" height="40" as="geometry" />
        </mxCell>
        <mxCell id="ZNMSevWMWKB2k7Ek5_Fw-8" value="是" style="edgeStyle=orthogonalEdgeStyle;rounded=0;orthogonalLoop=1;jettySize=auto;html=1;exitX=0;exitY=0.5;exitDx=0;exitDy=0;" parent="WIyWlLk6GJQsqaUBKTNV-1" source="ZNMSevWMWKB2k7Ek5_Fw-4" target="ZNMSevWMWKB2k7Ek5_Fw-7" edge="1">
          <mxGeometry x="-0.4146" relative="1" as="geometry">
            <mxPoint as="offset" />
          </mxGeometry>
        </mxCell>
        <mxCell id="ZNMSevWMWKB2k7Ek5_Fw-11" value="否" style="edgeStyle=orthogonalEdgeStyle;rounded=0;orthogonalLoop=1;jettySize=auto;html=1;exitX=0.5;exitY=1;exitDx=0;exitDy=0;entryX=0.5;entryY=0;entryDx=0;entryDy=0;" parent="WIyWlLk6GJQsqaUBKTNV-1" source="ZNMSevWMWKB2k7Ek5_Fw-4" target="ZNMSevWMWKB2k7Ek5_Fw-10" edge="1">
          <mxGeometry relative="1" as="geometry" />
        </mxCell>
        <mxCell id="ZNMSevWMWKB2k7Ek5_Fw-4" value="判断pStateSize或者&lt;br&gt;&amp;nbsp; &amp;nbsp; &amp;nbsp;pBufSize是否为空指针？" style="rhombus;whiteSpace=wrap;html=1;" parent="WIyWlLk6GJQsqaUBKTNV-1" vertex="1">
          <mxGeometry x="320" y="160" width="160" height="90" as="geometry" />
        </mxCell>
        <mxCell id="ZNMSevWMWKB2k7Ek5_Fw-6" value="结束" style="html=1;dashed=0;whitespace=wrap;shape=mxgraph.dfd.start" parent="WIyWlLk6GJQsqaUBKTNV-1" vertex="1">
          <mxGeometry x="360" y="680" width="80" height="20" as="geometry" />
        </mxCell>
        <mxCell id="ZNMSevWMWKB2k7Ek5_Fw-9" style="edgeStyle=orthogonalEdgeStyle;rounded=0;orthogonalLoop=1;jettySize=auto;html=1;exitX=0.5;exitY=1;exitDx=0;exitDy=0;entryX=0;entryY=0.5;entryDx=0;entryDy=0;entryPerimeter=0;" parent="WIyWlLk6GJQsqaUBKTNV-1" source="ZNMSevWMWKB2k7Ek5_Fw-7" target="ZNMSevWMWKB2k7Ek5_Fw-6" edge="1">
          <mxGeometry relative="1" as="geometry" />
        </mxCell>
        <mxCell id="ZNMSevWMWKB2k7Ek5_Fw-7" value="返回错误HMPP_STS_NULL_PTR_ERR" style="rounded=0;whiteSpace=wrap;html=1;fillColor=#ffffff;gradientColor=none;" parent="WIyWlLk6GJQsqaUBKTNV-1" vertex="1">
          <mxGeometry x="120" y="295" width="170" height="40" as="geometry" />
        </mxCell>
        <mxCell id="ZNMSevWMWKB2k7Ek5_Fw-13" value="否" style="edgeStyle=orthogonalEdgeStyle;rounded=0;orthogonalLoop=1;jettySize=auto;html=1;exitX=0.5;exitY=1;exitDx=0;exitDy=0;entryX=0.5;entryY=0;entryDx=0;entryDy=0;" parent="WIyWlLk6GJQsqaUBKTNV-1" source="ZNMSevWMWKB2k7Ek5_Fw-10" target="ZNMSevWMWKB2k7Ek5_Fw-12" edge="1">
          <mxGeometry relative="1" as="geometry" />
        </mxCell>
        <mxCell id="ZNMSevWMWKB2k7Ek5_Fw-15" value="是" style="edgeStyle=orthogonalEdgeStyle;rounded=0;orthogonalLoop=1;jettySize=auto;html=1;exitX=1;exitY=0.5;exitDx=0;exitDy=0;entryX=0.5;entryY=0;entryDx=0;entryDy=0;" parent="WIyWlLk6GJQsqaUBKTNV-1" source="ZNMSevWMWKB2k7Ek5_Fw-10" target="ZNMSevWMWKB2k7Ek5_Fw-14" edge="1">
          <mxGeometry x="-0.5459" relative="1" as="geometry">
            <mxPoint as="offset" />
          </mxGeometry>
        </mxCell>
        <mxCell id="ZNMSevWMWKB2k7Ek5_Fw-10" value="判断srcRoi的高或者宽&lt;br&gt;是否小于等于0？" style="rhombus;whiteSpace=wrap;html=1;" parent="WIyWlLk6GJQsqaUBKTNV-1" vertex="1">
          <mxGeometry x="320" y="280" width="160" height="70" as="geometry" />
        </mxCell>
        <mxCell id="ZNMSevWMWKB2k7Ek5_Fw-18" value="是" style="edgeStyle=orthogonalEdgeStyle;rounded=0;orthogonalLoop=1;jettySize=auto;html=1;exitX=1;exitY=0.5;exitDx=0;exitDy=0;entryX=0.5;entryY=0;entryDx=0;entryDy=0;" parent="WIyWlLk6GJQsqaUBKTNV-1" source="ZNMSevWMWKB2k7Ek5_Fw-12" target="ZNMSevWMWKB2k7Ek5_Fw-17" edge="1">
          <mxGeometry x="-0.4595" relative="1" as="geometry">
            <mxPoint as="offset" />
          </mxGeometry>
        </mxCell>
        <mxCell id="ZNMSevWMWKB2k7Ek5_Fw-27" value="否" style="edgeStyle=orthogonalEdgeStyle;rounded=0;orthogonalLoop=1;jettySize=auto;html=1;exitX=0.5;exitY=1;exitDx=0;exitDy=0;entryX=0.5;entryY=0;entryDx=0;entryDy=0;" parent="WIyWlLk6GJQsqaUBKTNV-1" source="ZNMSevWMWKB2k7Ek5_Fw-12" target="ZNMSevWMWKB2k7Ek5_Fw-25" edge="1">
          <mxGeometry relative="1" as="geometry" />
        </mxCell>
        <mxCell id="ZNMSevWMWKB2k7Ek5_Fw-12" value="判断kerSize&amp;lt;=0&lt;br&gt;或者kerSize为偶数&lt;br&gt;或者rate&amp;lt;=1&lt;br&gt;或者rate&amp;gt;10?" style="rhombus;whiteSpace=wrap;html=1;" parent="WIyWlLk6GJQsqaUBKTNV-1" vertex="1">
          <mxGeometry x="300" y="380" width="200" height="100" as="geometry" />
        </mxCell>
        <mxCell id="ZNMSevWMWKB2k7Ek5_Fw-30" style="edgeStyle=orthogonalEdgeStyle;rounded=0;orthogonalLoop=1;jettySize=auto;html=1;exitX=0.5;exitY=1;exitDx=0;exitDy=0;entryX=1;entryY=0.5;entryDx=0;entryDy=0;entryPerimeter=0;" parent="WIyWlLk6GJQsqaUBKTNV-1" source="ZNMSevWMWKB2k7Ek5_Fw-14" target="ZNMSevWMWKB2k7Ek5_Fw-6" edge="1">
          <mxGeometry relative="1" as="geometry" />
        </mxCell>
        <mxCell id="ZNMSevWMWKB2k7Ek5_Fw-14" value="返回错误HMPP_STS_SIZE_ERR" style="rounded=0;whiteSpace=wrap;html=1;fillColor=#ffffff;gradientColor=none;" parent="WIyWlLk6GJQsqaUBKTNV-1" vertex="1">
          <mxGeometry x="610" y="410" width="140" height="40" as="geometry" />
        </mxCell>
        <mxCell id="ZNMSevWMWKB2k7Ek5_Fw-33" style="edgeStyle=orthogonalEdgeStyle;rounded=0;orthogonalLoop=1;jettySize=auto;html=1;jumpSize=4;" parent="WIyWlLk6GJQsqaUBKTNV-1" source="ZNMSevWMWKB2k7Ek5_Fw-17" edge="1">
          <mxGeometry relative="1" as="geometry">
            <mxPoint x="585" y="690" as="targetPoint" />
          </mxGeometry>
        </mxCell>
        <mxCell id="ZNMSevWMWKB2k7Ek5_Fw-17" value="返回错误HMPP_STS_BAD_ARG_ERR" style="rounded=0;whiteSpace=wrap;html=1;fillColor=#ffffff;gradientColor=none;" parent="WIyWlLk6GJQsqaUBKTNV-1" vertex="1">
          <mxGeometry x="500" y="510" width="170" height="40" as="geometry" />
        </mxCell>
        <mxCell id="ZNMSevWMWKB2k7Ek5_Fw-28" style="edgeStyle=orthogonalEdgeStyle;rounded=0;orthogonalLoop=1;jettySize=auto;html=1;exitX=0.5;exitY=1;exitDx=0;exitDy=0;entryX=0.5;entryY=0;entryDx=0;entryDy=0;" parent="WIyWlLk6GJQsqaUBKTNV-1" source="ZNMSevWMWKB2k7Ek5_Fw-25" target="ZNMSevWMWKB2k7Ek5_Fw-26" edge="1">
          <mxGeometry relative="1" as="geometry" />
        </mxCell>
        <mxCell id="ZNMSevWMWKB2k7Ek5_Fw-25" value="*pStateSize = (srcRoi.width + kerSize / 2 * 2) * (srcRoi.height + kerSize / 2 * 2) * 4;" style="rounded=0;whiteSpace=wrap;html=1;fillColor=#ffffff;gradientColor=none;" parent="WIyWlLk6GJQsqaUBKTNV-1" vertex="1">
          <mxGeometry x="315" y="510" width="170" height="40" as="geometry" />
        </mxCell>
        <mxCell id="ZNMSevWMWKB2k7Ek5_Fw-38" style="edgeStyle=orthogonalEdgeStyle;rounded=0;orthogonalLoop=1;jettySize=auto;html=1;exitX=0.5;exitY=1;exitDx=0;exitDy=0;entryX=0.5;entryY=0;entryDx=0;entryDy=0;" parent="WIyWlLk6GJQsqaUBKTNV-1" source="ZNMSevWMWKB2k7Ek5_Fw-26" target="ZNMSevWMWKB2k7Ek5_Fw-37" edge="1">
          <mxGeometry relative="1" as="geometry" />
        </mxCell>
        <mxCell id="ZNMSevWMWKB2k7Ek5_Fw-26" value="*pBufSize = max(srcRoi.height, srcRoi.width) * 8;" style="rounded=0;whiteSpace=wrap;html=1;fillColor=#ffffff;gradientColor=none;" parent="WIyWlLk6GJQsqaUBKTNV-1" vertex="1">
          <mxGeometry x="315" y="565" width="170" height="40" as="geometry" />
        </mxCell>
        <mxCell id="ZNMSevWMWKB2k7Ek5_Fw-39" style="edgeStyle=orthogonalEdgeStyle;rounded=0;orthogonalLoop=1;jettySize=auto;html=1;exitX=0.5;exitY=1;exitDx=0;exitDy=0;entryX=0.5;entryY=0;entryDx=0;entryDy=0;entryPerimeter=0;" parent="WIyWlLk6GJQsqaUBKTNV-1" source="ZNMSevWMWKB2k7Ek5_Fw-37" target="ZNMSevWMWKB2k7Ek5_Fw-6" edge="1">
          <mxGeometry relative="1" as="geometry" />
        </mxCell>
        <mxCell id="ZNMSevWMWKB2k7Ek5_Fw-37" value="返回HMPP_STS_NO_ERR" style="rounded=0;whiteSpace=wrap;html=1;fillColor=#ffffff;gradientColor=none;" parent="WIyWlLk6GJQsqaUBKTNV-1" vertex="1">
          <mxGeometry x="315" y="620" width="170" height="40" as="geometry" />
        </mxCell>
      </root>
    </mxGraphModel>
  </diagram>
  <diagram id="7Yc3ytJxiOWa-vGmbrRs" name="Page-2">
    <mxGraphModel dx="1038" dy="579" grid="1" gridSize="10" guides="1" tooltips="1" connect="1" arrows="1" fold="1" page="1" pageScale="1" pageWidth="827" pageHeight="1169" math="0" shadow="0">
      <root>
        <mxCell id="daRl45LXFV5j854g4WSP-0" />
        <mxCell id="daRl45LXFV5j854g4WSP-1" parent="daRl45LXFV5j854g4WSP-0" />
        <mxCell id="sC33nwhoYvKJ167pogGu-0" value="" style="shape=table;startSize=0;container=1;collapsible=0;childLayout=tableLayout;" vertex="1" parent="daRl45LXFV5j854g4WSP-1">
          <mxGeometry x="280" y="160" width="240" height="160" as="geometry" />
        </mxCell>
        <mxCell id="sC33nwhoYvKJ167pogGu-1" value="" style="shape=partialRectangle;collapsible=0;dropTarget=0;pointerEvents=0;fillColor=none;top=0;left=0;bottom=0;right=0;points=[[0,0.5],[1,0.5]];portConstraint=eastwest;" vertex="1" parent="sC33nwhoYvKJ167pogGu-0">
          <mxGeometry width="240" height="40" as="geometry" />
        </mxCell>
        <mxCell id="sC33nwhoYvKJ167pogGu-2" value="1" style="shape=partialRectangle;html=1;whiteSpace=wrap;connectable=0;overflow=hidden;fillColor=none;top=0;left=0;bottom=0;right=0;" vertex="1" parent="sC33nwhoYvKJ167pogGu-1">
          <mxGeometry width="60" height="40" as="geometry" />
        </mxCell>
        <mxCell id="sC33nwhoYvKJ167pogGu-3" value="2" style="shape=partialRectangle;html=1;whiteSpace=wrap;connectable=0;overflow=hidden;fillColor=none;top=0;left=0;bottom=0;right=0;" vertex="1" parent="sC33nwhoYvKJ167pogGu-1">
          <mxGeometry x="60" width="60" height="40" as="geometry" />
        </mxCell>
        <mxCell id="sC33nwhoYvKJ167pogGu-4" value="3" style="shape=partialRectangle;html=1;whiteSpace=wrap;connectable=0;overflow=hidden;fillColor=none;top=0;left=0;bottom=0;right=0;" vertex="1" parent="sC33nwhoYvKJ167pogGu-1">
          <mxGeometry x="120" width="60" height="40" as="geometry" />
        </mxCell>
        <mxCell id="sC33nwhoYvKJ167pogGu-5" value="4" style="shape=partialRectangle;html=1;whiteSpace=wrap;connectable=0;overflow=hidden;fillColor=none;top=0;left=0;bottom=0;right=0;" vertex="1" parent="sC33nwhoYvKJ167pogGu-1">
          <mxGeometry x="180" width="60" height="40" as="geometry" />
        </mxCell>
        <mxCell id="sC33nwhoYvKJ167pogGu-6" value="" style="shape=partialRectangle;collapsible=0;dropTarget=0;pointerEvents=0;fillColor=none;top=0;left=0;bottom=0;right=0;points=[[0,0.5],[1,0.5]];portConstraint=eastwest;" vertex="1" parent="sC33nwhoYvKJ167pogGu-0">
          <mxGeometry y="40" width="240" height="40" as="geometry" />
        </mxCell>
        <mxCell id="sC33nwhoYvKJ167pogGu-7" value="5" style="shape=partialRectangle;html=1;whiteSpace=wrap;connectable=0;overflow=hidden;fillColor=none;top=0;left=0;bottom=0;right=0;" vertex="1" parent="sC33nwhoYvKJ167pogGu-6">
          <mxGeometry width="60" height="40" as="geometry" />
        </mxCell>
        <mxCell id="sC33nwhoYvKJ167pogGu-8" value="6" style="shape=partialRectangle;html=1;whiteSpace=wrap;connectable=0;overflow=hidden;fillColor=none;top=0;left=0;bottom=0;right=0;" vertex="1" parent="sC33nwhoYvKJ167pogGu-6">
          <mxGeometry x="60" width="60" height="40" as="geometry" />
        </mxCell>
        <mxCell id="sC33nwhoYvKJ167pogGu-9" value="7" style="shape=partialRectangle;html=1;whiteSpace=wrap;connectable=0;overflow=hidden;fillColor=none;top=0;left=0;bottom=0;right=0;" vertex="1" parent="sC33nwhoYvKJ167pogGu-6">
          <mxGeometry x="120" width="60" height="40" as="geometry" />
        </mxCell>
        <mxCell id="sC33nwhoYvKJ167pogGu-10" value="8" style="shape=partialRectangle;html=1;whiteSpace=wrap;connectable=0;overflow=hidden;fillColor=none;top=0;left=0;bottom=0;right=0;" vertex="1" parent="sC33nwhoYvKJ167pogGu-6">
          <mxGeometry x="180" width="60" height="40" as="geometry" />
        </mxCell>
        <mxCell id="sC33nwhoYvKJ167pogGu-11" value="" style="shape=partialRectangle;collapsible=0;dropTarget=0;pointerEvents=0;fillColor=none;top=0;left=0;bottom=0;right=0;points=[[0,0.5],[1,0.5]];portConstraint=eastwest;" vertex="1" parent="sC33nwhoYvKJ167pogGu-0">
          <mxGeometry y="80" width="240" height="40" as="geometry" />
        </mxCell>
        <mxCell id="sC33nwhoYvKJ167pogGu-12" value="9" style="shape=partialRectangle;html=1;whiteSpace=wrap;connectable=0;overflow=hidden;fillColor=none;top=0;left=0;bottom=0;right=0;" vertex="1" parent="sC33nwhoYvKJ167pogGu-11">
          <mxGeometry width="60" height="40" as="geometry" />
        </mxCell>
        <mxCell id="sC33nwhoYvKJ167pogGu-13" value="10" style="shape=partialRectangle;html=1;whiteSpace=wrap;connectable=0;overflow=hidden;fillColor=none;top=0;left=0;bottom=0;right=0;" vertex="1" parent="sC33nwhoYvKJ167pogGu-11">
          <mxGeometry x="60" width="60" height="40" as="geometry" />
        </mxCell>
        <mxCell id="sC33nwhoYvKJ167pogGu-14" value="11" style="shape=partialRectangle;html=1;whiteSpace=wrap;connectable=0;overflow=hidden;fillColor=none;top=0;left=0;bottom=0;right=0;" vertex="1" parent="sC33nwhoYvKJ167pogGu-11">
          <mxGeometry x="120" width="60" height="40" as="geometry" />
        </mxCell>
        <mxCell id="sC33nwhoYvKJ167pogGu-15" value="12" style="shape=partialRectangle;html=1;whiteSpace=wrap;connectable=0;overflow=hidden;fillColor=none;top=0;left=0;bottom=0;right=0;" vertex="1" parent="sC33nwhoYvKJ167pogGu-11">
          <mxGeometry x="180" width="60" height="40" as="geometry" />
        </mxCell>
        <mxCell id="sC33nwhoYvKJ167pogGu-16" value="" style="shape=partialRectangle;collapsible=0;dropTarget=0;pointerEvents=0;fillColor=none;top=0;left=0;bottom=0;right=0;points=[[0,0.5],[1,0.5]];portConstraint=eastwest;" vertex="1" parent="sC33nwhoYvKJ167pogGu-0">
          <mxGeometry y="120" width="240" height="40" as="geometry" />
        </mxCell>
        <mxCell id="sC33nwhoYvKJ167pogGu-17" value="13" style="shape=partialRectangle;html=1;whiteSpace=wrap;connectable=0;overflow=hidden;fillColor=none;top=0;left=0;bottom=0;right=0;" vertex="1" parent="sC33nwhoYvKJ167pogGu-16">
          <mxGeometry width="60" height="40" as="geometry" />
        </mxCell>
        <mxCell id="sC33nwhoYvKJ167pogGu-18" value="14" style="shape=partialRectangle;html=1;whiteSpace=wrap;connectable=0;overflow=hidden;fillColor=none;top=0;left=0;bottom=0;right=0;" vertex="1" parent="sC33nwhoYvKJ167pogGu-16">
          <mxGeometry x="60" width="60" height="40" as="geometry" />
        </mxCell>
        <mxCell id="sC33nwhoYvKJ167pogGu-19" value="15" style="shape=partialRectangle;html=1;whiteSpace=wrap;connectable=0;overflow=hidden;fillColor=none;top=0;left=0;bottom=0;right=0;" vertex="1" parent="sC33nwhoYvKJ167pogGu-16">
          <mxGeometry x="120" width="60" height="40" as="geometry" />
        </mxCell>
        <mxCell id="sC33nwhoYvKJ167pogGu-20" value="16" style="shape=partialRectangle;html=1;whiteSpace=wrap;connectable=0;overflow=hidden;fillColor=none;top=0;left=0;bottom=0;right=0;" vertex="1" parent="sC33nwhoYvKJ167pogGu-16">
          <mxGeometry x="180" width="60" height="40" as="geometry" />
        </mxCell>
      </root>
    </mxGraphModel>
  </diagram>
</mxfile>
